<svg id="Layer_1" height="512" viewBox="0 0 512 512" width="512" xmlns="http://www.w3.org/2000/svg" data-name="Layer 1"><path d="m82.556 476.263v-40.053h-17.177a24.021 24.021 0 0 1 -12.823-3.71v43.761c0 7.574 5.753 13.737 12.823 13.737h30c-7.07.002-12.823-6.161-12.823-13.735z" fill="#909eb3ab"/><path d="m65.379 424.21h30c-7.07 0-12.823-6.162-12.823-13.737v-83.88c0-7.575 5.753-13.737 12.823-13.737h-30c-7.07 0-12.823 6.162-12.823 13.737v83.88c0 7.575 5.753 13.737 12.823 13.737z" fill="#909eb3ab"/><path d="m196.959 123.374a17.889 17.889 0 0 1 17.868-17.869h226.749a17.888 17.888 0 0 1 17.868 17.869v310.288a17.888 17.888 0 0 1 -17.868 17.868h-23.836v-178.979a29.9 29.9 0 0 0 -29.868-29.869h-119.341a29.9 29.9 0 0 0 -29.869 29.869v34.305h12v-34.305a17.889 17.889 0 0 1 17.869-17.869h119.341a17.888 17.888 0 0 1 17.868 17.869v178.979h-113.34v12h113.34v16.675a6 6 0 0 0 6 6h35.8a6 6 0 0 0 6-6v-19.185a29.907 29.907 0 0 0 17.9-27.358v-310.288a29.9 29.9 0 0 0 -29.868-29.869h-41.732v-59.605a6 6 0 0 0 -6-6h-23.84v-7.9a10.011 10.011 0 0 0 -10-10h-63.6a10.012 10.012 0 0 0 -10 10v7.9h-23.837a6 6 0 0 0 -6 6v59.6h-41.736a29.9 29.9 0 0 0 -29.868 29.869v148.29h12zm220.781 350.831v-10.675h23.8v10.675zm-119.34-452.205h59.6v23.8h-59.6zm-29.837 17.9h17.837v7.9a10.012 10.012 0 0 0 10 10h63.6a10.011 10.011 0 0 0 10-10v-7.9h17.84v53.6h-119.277z" fill="#8494a9"/><path d="m399.807 221.863a17.954 17.954 0 0 0 17.933-17.934v-47.737a17.955 17.955 0 0 0 -17.933-17.934h-143.207a17.956 17.956 0 0 0 -17.935 17.934v47.737a17.955 17.955 0 0 0 17.935 17.934zm-149.145-17.934v-47.737a5.941 5.941 0 0 1 5.935-5.934h143.21a5.941 5.941 0 0 1 5.933 5.934v47.737a5.941 5.941 0 0 1 -5.933 5.934h-143.207a5.941 5.941 0 0 1 -5.938-5.934z" fill="#8494a9"/><path d="m274.313 300.856h-50.468v-9.456c0-14.191-11.136-25.737-24.824-25.737h-58.35c-13.688 0-24.823 11.546-24.823 25.737v9.46h-50.469c-13.688 0-24.823 11.545-24.823 25.737v149.67c0 14.187 11.135 25.733 24.823 25.733h208.934c13.688 0 24.824-11.546 24.824-25.737v-149.67c0-14.193-11.137-25.737-24.824-25.737zm-146.465-9.456c0-7.575 5.753-13.737 12.823-13.737h58.35c7.071 0 12.824 6.162 12.824 13.737v9.46h-84zm159.289 184.863c0 7.574-5.753 13.737-12.824 13.737h-208.934c-7.07 0-12.823-6.163-12.823-13.737v-43.763a24.021 24.021 0 0 0 12.823 3.708h77.147v9.943a27.32 27.32 0 1 0 54.64 0v-9.942h77.147a24.025 24.025 0 0 0 12.824-3.708zm-132.611-30.11v-31h30.64v31a15.32 15.32 0 1 1 -30.64 0zm132.611-35.679c0 7.574-5.753 13.737-12.824 13.737h-77.147v-15.053a6 6 0 0 0 -6-6h-42.64a6 6 0 0 0 -6 6v15.052h-77.147c-7.07 0-12.823-6.162-12.823-13.737v-83.88c0-7.575 5.753-13.737 12.823-13.737h208.934c7.071 0 12.824 6.163 12.824 13.737z" fill="#00a039"/></svg>
