<svg id="Layer_1" enable-background="new 0 0 512 512" height="512" viewBox="0 0 512 512" width="512" xmlns="http://www.w3.org/2000/svg"><path d="m143.7 428.1c-15.3-6.6-25.2-21.7-25.2-38.4v-93c-11.8-2.7-22.4-9.3-30-18.7v111.7c0 16.7 9.9 31.8 25.2 38.4 1.4 0 2.8.5 3.9 1.5 4.1 1.3 8.4 2 12.6 2h30c-4.3 0-8.6-.7-12.6-2-1-1-2.4-1.5-3.9-1.5z" fill="#909eb3ab"/><path d="m118.5 244.2v-118c0-2.2.2-4.3.5-6.4.4-.8.6-1.7.6-2.6 0-.1 0-.2 0-.3 4.4-19 21.3-32.5 40.8-32.5h-30c-19.5 0-36.4 13.5-40.8 32.5v.3c0 .9-.2 1.8-.6 2.6-.3 2.1-.5 4.3-.5 6.4v118c0 23.1 18.7 41.8 41.8 41.8h7.4c.2-2 .5-4 1-6-12.6-7.6-20.2-21.2-20.2-35.8z" fill="#909eb3ab"/><g fill="#00a039"><path d="m143.3 502.5h-5.7c-16.5 0-29.9-13.4-29.9-29.9v-38.5h12v38.5c0 9.9 8 17.9 17.9 17.9h5.7c9.9 0 17.9-8 17.9-17.9v-34.7h12v34.7c0 16.5-13.4 29.9-29.9 29.9z"/><path d="m374.4 502.5h-5.7c-16.5 0-29.9-13.4-29.9-29.9v-34.7h12v34.7c0 9.9 8 17.9 17.9 17.9h5.7c9.9 0 17.9-8 17.9-17.9v-38.5h12v38.5c0 16.5-13.4 29.9-29.9 29.9z"/><path d="m137.9 342c-14.9 0-27 12.1-27 27s12.1 27 27 27 27-12.1 27-27-12.1-27-27-27zm0 42c-8.3 0-15-6.7-15-15s6.7-15 15-15 15 6.7 15 15-6.7 15-15 15z"/><path d="m374.1 342c-14.9 0-27 12.1-27 27s12.1 27 27 27 27-12.1 27-27-12.1-27-27-27zm0 42c-8.3 0-15-6.7-15-15s6.7-15 15-15 15 6.7 15 15-6.7 15-15 15z"/><path d="m321.8 348.5h-131.6c-8.8 0-16 7.2-16 16v12.5c0 8.8 7.2 16 16 16h131.6c8.8 0 16-7.2 16-16v-12.5c0-8.9-7.2-16-16-16zm-85.1 12h13.3v20.5h-13.3zm-12 20.4h-13.3v-20.5h13.3zm37.3-20.4h13.3v20.5h-13.3zm25.3 0h13.3v20.5h-13.3zm-101.1 16.4v-12.5c0-2.2 1.8-4 4-4h9.3v20.5h-9.3c-2.2 0-4-1.7-4-4zm139.6 0c0 2.2-1.8 4-4 4h-9.3v-20.5h9.3c2.2 0 4 1.8 4 4z"/></g><path d="m451.8 111.2h-18.4c-6-20.5-23.6-35.6-44.8-38.4v-46.5c0-9.3-7.5-16.8-16.8-16.8h-240.3c-9.3 0-16.8 7.5-16.8 16.8v48.3c-17.4 5.3-31 19-36.1 36.5h-18.4c-14.3 0-25.9 11.6-25.9 25.9v41.1h12v-41.1c0-7.7 6.2-13.9 13.9-13.9h16.4l-.1 121v145.5c0 29.7 24.1 53.8 53.8 53.8h251.4c29.7 0 53.8-24.1 53.8-53.8v-145.4l-.1-121h16.4c7.7 0 13.9 6.2 13.9 13.9v41.1h12v-41.1c0-14.3-11.6-25.9-25.9-25.9zm-323.1-84.9c0-1.6 1.3-2.8 2.8-2.8h240.3c1.6 0 2.8 1.3 2.8 2.8v46h-244.3c-.5 0-1.1 0-1.6 0zm294.8 363.4c0 23.1-18.7 41.8-41.8 41.8h-251.4c-23.1 0-41.8-18.7-41.8-41.8v-111.7c10.2 12.6 25.6 20 41.8 20h251.4c16.2 0 31.6-7.3 41.8-20zm-273.7-103.7c3.6-26.3 27.8-44.8 54.2-41.2 21.5 2.9 38.3 19.8 41.2 41.2zm273.7-41.8c0 23.1-18.7 41.8-41.8 41.8h-124.4c-3.6-33-33.2-56.9-66.3-53.3-28.1 3-50.3 25.2-53.3 53.3h-7.4c-23.1 0-41.8-18.7-41.8-41.8v-118c0-23.1 18.7-41.8 41.8-41.8h251.4c23.1 0 41.8 18.7 41.8 41.8z" fill="#8494a9"/><path d="m478 233.9h-16.5c-9.3 0-16.8-7.5-16.8-16.8v-28c0-9.3 7.5-16.8 16.8-16.8h16.5c9.3 0 16.8 7.5 16.8 16.8v28c.1 9.3-7.5 16.8-16.8 16.8zm-16.5-49.7c-2.7 0-4.8 2.2-4.8 4.8v28c0 2.7 2.2 4.8 4.8 4.8h16.5c2.7 0 4.8-2.2 4.8-4.8v-28c0-2.7-2.2-4.8-4.8-4.8z" fill="#00a039"/><path d="m50.5 233.9h-16.5c-9.3 0-16.8-7.5-16.8-16.8v-28c0-9.3 7.5-16.8 16.8-16.8h16.5c9.3 0 16.8 7.5 16.8 16.8v28c0 9.3-7.5 16.8-16.8 16.8zm-16.5-49.7c-2.7 0-4.8 2.2-4.8 4.8v28c0 2.7 2.2 4.8 4.8 4.8h16.5c2.7 0 4.8-2.2 4.8-4.8v-28c0-2.7-2.2-4.8-4.8-4.8z" fill="#00a039"/></svg>
