<?xml version="1.0"?>
<svg xmlns="http://www.w3.org/2000/svg" id="Layer_1" data-name="Layer 1" viewBox="0 0 512 512" width="512" height="512"><title>Bus 2</title><path d="M256,295c-.032,0-.063,0-.094,0h.188C256.062,295,256.031,295,256,295Z" style="fill:#909eb3ab"/><path d="M132,385v-90.21A48.417,48.417,0,0,1,102,280.5V385a38.815,38.815,0,0,0,38.658,39h30A38.815,38.815,0,0,1,132,385Z" style="fill:#909eb3ab"/><path d="M132,246.418V67.588c0-1.126-.066-2.24.04-3.339a6.619,6.619,0,0,0,.613-4.346A34.607,34.607,0,0,1,166.339,33h-30a34.607,34.607,0,0,0-33.686,26.9,6.619,6.619,0,0,1-.613,4.346c-.106,1.1-.04,2.213-.04,3.339v178.83A34.409,34.409,0,0,0,136.339,281h30A34.409,34.409,0,0,1,132,246.418Z" style="fill:#909eb3ab"/><path d="M396,461.046V428H382v33.046A15.887,15.887,0,0,1,366.146,477h-2.3A15.884,15.884,0,0,1,348,461.046V431H335.082s-.082.011-.082-.088V414.27c0-14.935-13.34-27.27-29.856-27.27H206.859C190.341,387,177,399.335,177,414.27v16.642c0,.1-.086.088-.082.088H164v30.046A15.884,15.884,0,0,1,148.15,477h-2.3A15.888,15.888,0,0,1,130,461.046V428H116v33.046A29.9,29.9,0,0,0,145.855,491h2.3A29.9,29.9,0,0,0,178,461.046V434.831a6.835,6.835,0,0,0,5.9,3.081,7.086,7.086,0,0,0,7.1-7V414.27c0-7.093,7.21-13.27,15.859-13.27h98.285c8.647,0,15.856,6.177,15.856,13.27v16.642a7.086,7.086,0,0,0,7.1,7,6.835,6.835,0,0,0,5.9-3.081v26.215A29.9,29.9,0,0,0,363.85,491h2.3A29.9,29.9,0,0,0,396,461.046Z" style="fill:#00a039"/><path d="M367.516,384.87A25.715,25.715,0,1,0,341.8,359.156,25.744,25.744,0,0,0,367.516,384.87Zm0-37.429A11.715,11.715,0,1,1,355.8,359.156,11.728,11.728,0,0,1,367.516,347.441Z" style="fill:#00a039"/><path d="M172.5,359.156a25.715,25.715,0,1,0-25.715,25.714A25.745,25.745,0,0,0,172.5,359.156Zm-37.43,0a11.715,11.715,0,1,1,11.715,11.714A11.728,11.728,0,0,1,135.066,359.156Z" style="fill:#00a039"/><path d="M184,281.456a7,7,0,0,0-7,7V305.1c0,14.935,13.341,26.9,29.859,26.9h98.285C321.66,332,335,320.032,335,305.1V288.456a7,7,0,0,0-14,0V305.1c0,7.093-7.209,12.9-15.856,12.9H206.859C198.21,318,191,312.19,191,305.1V288.456A7,7,0,0,0,184,281.456Z" style="fill:#00a039"/><path d="M118.675,93h274.65c3.866,0,6.675-3.424,6.675-7.29V69.064C400,54.135,386.891,42,370.378,42H141.632C125.114,42,112,54.135,112,69.064V85.71C112,89.576,114.809,93,118.675,93ZM126,69.064C126,61.977,132.982,56,141.632,56H370.378C379.022,56,386,61.977,386,69.064V79H126Z" style="fill:#00a039"/><path d="M396,461.046V428H382v33.046A15.887,15.887,0,0,1,366.146,477h-2.3A15.884,15.884,0,0,1,348,461.046V431H335.082s-.082.011-.082-.088V414.27c0-14.935-13.34-27.27-29.856-27.27H206.859C190.341,387,177,399.335,177,414.27v16.642c0,.1-.086.088-.082.088H164v30.046A15.884,15.884,0,0,1,148.15,477h-2.3A15.888,15.888,0,0,1,130,461.046V428H116v33.046A29.9,29.9,0,0,0,145.855,491h2.3A29.9,29.9,0,0,0,178,461.046V434.831a6.835,6.835,0,0,0,5.9,3.081,7.086,7.086,0,0,0,7.1-7V414.27c0-7.093,7.21-13.27,15.859-13.27h98.285c8.647,0,15.856,6.177,15.856,13.27v16.642a7.086,7.086,0,0,0,7.1,7,6.835,6.835,0,0,0,5.9-3.081v26.215A29.9,29.9,0,0,0,363.85,491h2.3A29.9,29.9,0,0,0,396,461.046Z" style="fill:#00a039"/><path d="M367.516,384.87A25.715,25.715,0,1,0,341.8,359.156,25.744,25.744,0,0,0,367.516,384.87Zm0-37.429A11.715,11.715,0,1,1,355.8,359.156,11.728,11.728,0,0,1,367.516,347.441Z" style="fill:#00a039"/><path d="M172.5,359.156a25.715,25.715,0,1,0-25.715,25.714A25.745,25.745,0,0,0,172.5,359.156Zm-37.43,0a11.715,11.715,0,1,1,11.715,11.714A11.728,11.728,0,0,1,135.066,359.156Z" style="fill:#00a039"/><path d="M184,281.456a7,7,0,0,0-7,7V305.1c0,14.935,13.341,26.9,29.859,26.9h98.285C321.66,332,335,320.032,335,305.1V288.456a7,7,0,0,0-14,0V305.1c0,7.093-7.209,12.9-15.856,12.9H206.859C198.21,318,191,312.19,191,305.1V288.456A7,7,0,0,0,184,281.456Z" style="fill:#00a039"/><path d="M118.675,93h274.65c3.866,0,6.675-3.424,6.675-7.29V69.064C400,54.135,386.891,42,370.378,42H141.632C125.114,42,112,54.135,112,69.064V85.71C112,89.576,114.809,93,118.675,93ZM126,69.064C126,61.977,132.982,56,141.632,56H370.378C379.022,56,386,61.977,386,69.064V79H126Z" style="fill:#00a039"/><path d="M57,123a7,7,0,0,0,7-7V80.13A11.9,11.9,0,0,1,75.844,68H88V385a52.83,52.83,0,0,0,52.658,53H371.342A52.83,52.83,0,0,0,424,385V68h12.156A11.9,11.9,0,0,1,448,80.13V116a7,7,0,0,0,14,0V80.13A25.918,25.918,0,0,0,436.156,54H422.3A48.9,48.9,0,0,0,375.66,19H256.094c-.032,0-.063,0-.094,0s-.063,0-.094,0H136.339A48.9,48.9,0,0,0,89.7,54H75.844A25.918,25.918,0,0,0,50,80.13V116A7,7,0,0,0,57,123ZM371.342,424H140.658A38.815,38.815,0,0,1,102,385V280.5A48.166,48.166,0,0,0,136.339,295H255.906c.031,0,.062,0,.094,0s.062,0,.094,0H375.66A48.164,48.164,0,0,0,410,280.5V385A38.815,38.815,0,0,1,371.342,424Zm-235-391H249V48.988a7,7,0,0,0,14,0V33H375.66a34.641,34.641,0,0,1,33.718,26.907,7.064,7.064,0,0,0-.094,1.1,6.881,6.881,0,0,0,.676,3.243c.106,1.1.04,2.215.04,3.343v178.83A34.41,34.41,0,0,1,375.66,281H263V85.71a7,7,0,1,0-14,0V281H136.339A34.409,34.409,0,0,1,102,246.418V67.588c0-1.126-.066-2.24.04-3.339a6.619,6.619,0,0,0,.613-4.346A34.607,34.607,0,0,1,136.339,33Z" style="fill:#8494a9"/><path d="M477,126a17,17,0,0,0-17-17H446a17,17,0,0,0-17,17v44a17,17,0,0,0,17,17h14a17,17,0,0,0,17-17Zm-14,44a3,3,0,0,1-3,3H446a3,3,0,0,1-3-3V126a3,3,0,0,1,3-3h14a3,3,0,0,1,3,3Z" style="fill:#00a039"/><path d="M82,126a17,17,0,0,0-17-17H51a17,17,0,0,0-17,17v44a17,17,0,0,0,17,17H65a17,17,0,0,0,17-17ZM68,170a3,3,0,0,1-3,3H51a3,3,0,0,1-3-3V126a3,3,0,0,1,3-3H65a3,3,0,0,1,3,3Z" style="fill:#00a039"/></svg>
