<?xml version="1.0"?>
<svg xmlns="http://www.w3.org/2000/svg" id="Layer_1" data-name="Layer 1" viewBox="0 0 512 512" width="512" height="512"><title>Delivery  Vehicle</title><path d="M122,364.253V311H102v53.253c0,6.773,5.492,12.747,12.265,12.747h20C127.492,377,122,371.026,122,364.253Z" style="fill:#909eb3ab"/><path d="M163.643,151.366A30.245,30.245,0,0,1,193.18,127h-20a30.245,30.245,0,0,0-29.537,24.366A14.466,14.466,0,0,0,143,153.43V258h20V153.43A14.466,14.466,0,0,1,163.643,151.366Z" style="fill:#909eb3ab"/><path d="M158.3,272h-20c-3.437,3-10.737,10.057-18.066,17.074A104.053,104.053,0,0,1,111.66,297h20a104.053,104.053,0,0,0,8.572-7.926C147.561,282.057,154.861,275,158.3,272Z" style="fill:#909eb3ab"/><path d="M345.629,352a19.005,19.005,0,0,0,18.888,19h18.227a19,19,0,0,0,0-38H364.517A19.006,19.006,0,0,0,345.629,352Zm18.888-5h18.227a5,5,0,0,1,0,10H364.517a5,5,0,0,1,0-10Z" style="fill:#00a039"/><path d="M129.256,371h18.227a19,19,0,0,0,0-38H129.256a19,19,0,0,0,0,38Zm0-24h18.227a5,5,0,0,1,0,10H129.256a5,5,0,0,1,0-10Z" style="fill:#00a039"/><path d="M167,103.08a7,7,0,0,0,7-7V63.191a7,7,0,0,0-14,0V96.08A7,7,0,0,0,167,103.08Z" style="fill:#00a039"/><path d="M197,103.08a7,7,0,0,0,7-7V63.191a7,7,0,0,0-14,0V96.08A7,7,0,0,0,197,103.08Z" style="fill:#00a039"/><path d="M226,103.08a7,7,0,0,0,7-7V63.191a7,7,0,0,0-14,0V96.08A7,7,0,0,0,226,103.08Z" style="fill:#00a039"/><path d="M256,103.08a7,7,0,0,0,7-7V63.191a7,7,0,0,0-14,0V96.08A7,7,0,0,0,256,103.08Z" style="fill:#00a039"/><path d="M286,103.08a7,7,0,0,0,7-7V63.191a7,7,0,0,0-14,0V96.08A7,7,0,0,0,286,103.08Z" style="fill:#00a039"/><path d="M315,102.214a7,7,0,0,0,7-7V62.327a7,7,0,0,0-14,0V95.214A7,7,0,0,0,315,102.214Z" style="fill:#00a039"/><path d="M345,102.214a7,7,0,0,0,7-7V62.327a7,7,0,0,0-14,0V95.214A7,7,0,0,0,345,102.214Z" style="fill:#00a039"/><path d="M328,418.131a7,7,0,0,0-7,7V441.1c0,12.881,7.391,22.9,17.25,22.9h5.291c3.9,11,14.717,20,27.43,20h.335C387.289,484,400,470.711,400,454.729V424H386v30.729c0,8.263-6.431,15.271-14.694,15.271h-.335A15.237,15.237,0,0,1,356,454.729V425H342v25h-3.75c-.684,0-3.25-2.916-3.25-8.9V425.131A7,7,0,0,0,328,418.131Z" style="fill:#8494a9"/><path d="M112,424v30.729C112,470.711,124.711,484,140.694,484h.335c12.713,0,23.532-9,27.43-20h5.291c9.859,0,17.25-10.016,17.25-22.9V425.131a7,7,0,0,0-14,0V441.1c0,5.981-2.566,8.9-3.25,8.9H170V425H156v29.729A15.237,15.237,0,0,1,141.029,470h-.335C132.431,470,126,462.992,126,454.729V424Z" style="fill:#8494a9"/><path d="M88,304.551v59.7a26.556,26.556,0,0,0,22.33,26.219,7.164,7.164,0,0,0,2,.528H399.66a7.176,7.176,0,0,0,1.994-.526A26.556,26.556,0,0,0,424,364.253V303.51a6.988,6.988,0,0,0-2.041-4.949,6.1,6.1,0,0,0-.768-.741C418.363,295.373,398,275.747,384,262.236V253h9.469c9.374,0,16.531-7.967,16.531-17.341V159.944C410,150.57,402.843,143,393.469,143H384V51.677C384,38.779,371.909,28,357.416,28H154.938C140.445,28,129,38.779,129,51.677V143H118.428C109.054,143,101,150.57,101,159.944v75.715A17.684,17.684,0,0,0,118.428,253H129v8.7c-14,13.6-35.349,33.816-38.059,36.191A7.1,7.1,0,0,0,88,303.51v.886c0,.026,0,.052,0,.078S88,304.525,88,304.551ZM114.265,377C107.492,377,102,371.026,102,364.253V311h88.913C208.32,311,222,325.635,222,343.041V377ZM276,377H236V362h40Zm121.735,0H290V354.665c0-.018,0-.036,0-.054s0-.035,0-.053V343.041C290,325.635,303.673,311,321.08,311H410v53.253C410,371.026,404.509,377,397.735,377ZM143,153.43a14.466,14.466,0,0,1,.643-2.064A30.245,30.245,0,0,1,173.18,127H339.725a30.491,30.491,0,0,1,29.768,24.366c.091.456.507.921.507,1.337V243.54c0,.669-.328,1.38-.328,2.119s.328,1.45.328,2.118V258H143Zm253,6.514v75.715c0,1.654-.877,3.341-2.531,3.341H384V157h9.469C395.123,157,396,158.29,396,159.944ZM143,51.677C143,46.586,148.279,42,154.938,42H357.416C364.075,42,370,46.586,370,51.677V124.82A45.1,45.1,0,0,0,339.725,113H173.18A43.4,43.4,0,0,0,143,125.342ZM118.428,239A3.7,3.7,0,0,1,115,235.659V159.944c0-1.654,1.774-2.944,3.428-2.944H129v82Zm19.87,33H373.7c3.432,3,10.713,10.057,18.029,17.071,2.935,2.814,5.868,5.929,8.568,7.929H321.08C295.953,297,276,317.915,276,343.041V348H236v-4.959C236,317.915,216.04,297,190.913,297H111.66a104.053,104.053,0,0,0,8.572-7.926C127.561,282.057,134.861,275,138.3,272ZM92.153,297.111a6.864,6.864,0,0,0-.731.371A7.058,7.058,0,0,1,92.153,297.111ZM93.9,296.6c-.135.021-.265.055-.4.084C93.639,296.653,93.764,296.62,93.9,296.6Zm-.927.211c-.164.048-.322.109-.48.169C92.653,296.919,92.8,296.86,92.977,296.809Z" style="fill:#8494a9"/><path d="M100.284,432H411.716A26.316,26.316,0,0,0,438,405.713V383.537c0-3.867-3.134-6.537-7-6.537H81c-3.866,0-7,2.67-7,6.537v22.176A26.316,26.316,0,0,0,100.284,432ZM88,391H424v14.713A12.3,12.3,0,0,1,411.716,418H100.284A12.3,12.3,0,0,1,88,405.713Z" style="fill:#00a039"/></svg>
