<?xml version="1.0"?>
<svg xmlns="http://www.w3.org/2000/svg" id="Layer_1" data-name="Layer 1" viewBox="0 0 512 512" width="512" height="512"><title>maps and location</title><path d="M426.407,293.142a6,6,0,0,0-5.727-4.213H317.723v12h9.738l9.192,57.44a6,6,0,0,0,5.924,5.051h93.2L449.3,406.74H255.817a6,6,0,0,0-6,6v53.418H187.076l5-88.423a6,6,0,0,0-5.99-6.338H76.7l24.032-70.468H199.4v-12H96.442a6,6,0,0,0-5.678,4.064L30.321,470.222A6,6,0,0,0,36,478.158H476a6,6,0,0,0,5.728-7.787ZM347.694,351.42l-8.08-50.491h76.653l15.761,50.491ZM72.611,383.4H179.733l-4.676,82.761H44.386Zm189.206,82.761V418.74H453.041l14.8,47.418Z" style="fill:#8494a9"/><path d="M311.744,153.043a56,56,0,1,0-56,56A55.674,55.674,0,0,0,311.744,153.043Zm-56,44a44.087,44.087,0,1,1,44-44A44.049,44.049,0,0,1,255.744,197.043Z" style="fill:#00a039"/><path d="M257.281,379.812a6,6,0,0,0,4.8-2.407l97.318-130.1c19.721-26.295,29.42-57.914,27.311-89.019A135.637,135.637,0,0,0,347.653,71.4a127.5,127.5,0,0,0-180.745,0,135.629,135.629,0,0,0-39.06,86.876c-2.032,30.472,7.65,62.067,27.306,89.021l97.322,130.1A6,6,0,0,0,257.281,379.812ZM139.822,159.067a123.643,123.643,0,0,1,35.6-79.2,115.5,115.5,0,0,1,163.725,0,123.648,123.648,0,0,1,35.6,79.22c1.916,28.254-6.94,57.028-24.941,81.03L257.281,363.8,164.806,240.171C146.85,215.546,137.977,186.746,139.822,159.067Z" style="fill:#00a039"/><path d="M194.806,240.171c-17.956-24.625-26.829-53.425-24.984-81.1a123.643,123.643,0,0,1,35.6-79.2,114.464,114.464,0,0,1,66.863-33.058,117.488,117.488,0,0,0-15-.963,114.63,114.63,0,0,0-81.863,34.021,123.643,123.643,0,0,0-35.6,79.2c-1.845,27.679,7.028,56.479,24.984,81.1L257.281,363.8l15-20.053Z" style="fill:#909eb3ab"/></svg>
