<svg id="Layer_1" height="512" viewBox="0 0 512 512" width="512" xmlns="http://www.w3.org/2000/svg" data-name="Layer 1"><path d="m57.08 48.667v395.923h-26.08v43.12h30v-43.12h26.08v-422.923z" fill="#d4e1f4"/><g fill="#909eb3ab"><path d="m96.2 145.77h99.755a6 6 0 0 0 0-12h-93.755v-64.36h150.03v64.36h-26.563a6 6 0 0 0 0 12h32.563a6 6 0 0 0 6-6v-76.36a6 6 0 0 0 -6-6h-162.03a6 6 0 0 0 -6 6v76.36a6 6 0 0 0 6 6z"/><path d="m92.46 218.97a6 6 0 0 0 -6 6v7.83a6 6 0 0 0 12 0v-7.83a6 6 0 0 0 -6-6z"/><path d="m92.46 244.71a6 6 0 0 0 -6 6v147.53a6 6 0 0 0 12 0v-147.53a6 6 0 0 0 -6-6z"/></g><path d="m481 88.9h-18.38v-27.03a11.961 11.961 0 0 1 3.513-8.5l18.42-18.42a6 6 0 0 0 -8.486-8.486l-18.425 18.43a23.887 23.887 0 0 0 -7.022 16.976v27.03h-15.87a21.264 21.264 0 0 0 -21.24 21.24v14.66l-5.143 2.308a23.924 23.924 0 0 0 -13.913 18.244l-5.405 34a23.9 23.9 0 0 0 14.915 25.966l9.336 3.682v10.78a6 6 0 0 0 6 6h9.41v32.17a6 6 0 0 0 6 6h12.35v181.23a28.53 28.53 0 1 1 -57.06 0v-76.47a40.045 40.045 0 0 0 -40-40h-9.79v-36.71a6 6 0 0 0 -6-6h-36.86v12h30.86v84h-30.86v12h36.86a6 6 0 0 0 6-6v-47.29h9.79a28.032 28.032 0 0 1 28 28v76.47a40.53 40.53 0 0 0 81.06 0v-181.23h12.53a6 6 0 0 0 6-6v-32.17h3.41a6 6 0 0 0 6-6v-124.88a6 6 0 0 0 -6-6zm-15.41 163.05h-24.88v-26.17h24.88zm9.41-64.82h-27.63v-38.19a21.044 21.044 0 0 1 21.02-21.02h6.61zm0-71.21h-6.61a33.057 33.057 0 0 0 -33.02 33.02v44.19a6 6 0 0 0 6 6h33.63v14.65h-49.7v-8.86a6 6 0 0 0 -3.8-5.58l-13.13-5.19a11.949 11.949 0 0 1 -7.469-12.958l5.4-33.989a11.984 11.984 0 0 1 6.966-9.149l8.69-3.9a6 6 0 0 0 3.544-5.474v-18.54a9.25 9.25 0 0 1 9.24-9.24h40.259z" fill="#00a039"/><path d="m182.387 249.417a6 6 0 0 0 -10.354 0l-40.633 69.374a53.091 53.091 0 1 0 91.626 0zm23.88 125.26a41.09 41.09 0 0 1 -64.51-49.825l35.453-60.531 35.463 60.531a41.107 41.107 0 0 1 -6.406 49.825z" fill="#00a039"/><path d="m205.711 345.867a6 6 0 0 0 -7.064 4.7 20.183 20.183 0 0 1 -13.226 15.11 6 6 0 1 0 3.917 11.342 32.185 32.185 0 0 0 21.075-24.09 6 6 0 0 0 -4.702-7.062z" fill="#00a039"/><path d="m305.134 438.59h-1.784v-374.3a46.051 46.051 0 0 0 -46-46h-160.27a46.052 46.052 0 0 0 -46 46v374.3h-1.78a24.323 24.323 0 0 0 -24.3 24.3v24.82a6 6 0 0 0 6 6h292.43a6 6 0 0 0 6-6v-24.824a24.323 24.323 0 0 0 -24.296-24.296zm-208.054-408.3h160.27a34.038 34.038 0 0 1 34 34v108.6h-228.27v-108.6a34.039 34.039 0 0 1 34-34zm220.35 451.42h-280.43v-18.824a12.31 12.31 0 0 1 12.3-12.3h43.16a6 6 0 0 0 0-12h-29.38v-253.696h228.27v253.7h-169.683a6 6 0 1 0 0 12h183.467a12.31 12.31 0 0 1 12.3 12.3z" fill="#8494a9"/></svg>
